<?xml version="1.0" encoding="utf-8"?>
<!-- Generator: Adobe Illustrator 26.3.1, SVG Export Plug-In . SVG Version: 6.00 Build 0)  -->
<svg version="1.1" id="图层_1" xmlns="http://www.w3.org/2000/svg" xmlns:xlink="http://www.w3.org/1999/xlink" x="0px" y="0px"
	 viewBox="0 0 512 512" style="enable-background:new 0 0 512 512;" xml:space="preserve">
<path d="M504.9,27.4c3.2-8-0.7-17.1-8.7-20.3c-3.7-1.5-7.9-1.5-11.6,0L30,189h0l-14.1,5.6c-8,3.2-11.9,12.3-8.7,20.3
	c1.2,3.1,3.4,5.7,6.2,7.4l12.8,8.1l0,0.1l156.1,99.3l99.3,156.1l0.1,0.1l8.1,12.8c4.6,7.3,14.3,9.4,21.6,4.8
	c2.8-1.8,4.9-4.3,6.1-7.4C317.4,496.2,504.9,27.4,504.9,27.4z M447.6,86.5L213.4,320.7l-6.7-10.6c-1.2-1.9-2.9-3.6-4.8-4.8
	l-10.6-6.7L425.5,64.4l36.8-14.7L447.6,86.5L447.6,86.5z"/>
</svg>
