<?xml version="1.0" encoding="utf-8"?>
<!-- Generator: Adobe Illustrator 26.3.1, SVG Export Plug-In . SVG Version: 6.00 Build 0)  -->
<svg version="1.1" id="图层_1" xmlns="http://www.w3.org/2000/svg" xmlns:xlink="http://www.w3.org/1999/xlink" x="0px" y="0px"
	 viewBox="0 0 512 512" style="enable-background:new 0 0 512 512;" xml:space="preserve">
<style type="text/css">
	.st0{fill-rule:evenodd;clip-rule:evenodd;}
</style>
<path class="st0" d="M256,506c9.9,0,17.9-8,17.9-17.9V67l112.3,112.4c7,7,18.3,7,25.3,0c7-7,7-18.3,0-25.3L268.6,11.2
	c-7-7-18.3-7-25.3,0c0,0,0,0,0,0L100.5,154.1c-7,7-7,18.3,0,25.3c7,7,18.3,7,25.3,0L238.1,67v421.2C238.1,498,246.1,506,256,506z"/>
</svg>
