<?xml version="1.0" encoding="utf-8"?>
<!-- Generator: Adobe Illustrator 26.3.1, SVG Export Plug-In . SVG Version: 6.00 Build 0)  -->
<svg version="1.1" id="图层_1" xmlns="http://www.w3.org/2000/svg" xmlns:xlink="http://www.w3.org/1999/xlink" x="0px" y="0px"
	 viewBox="0 0 256 256" style="enable-background:new 0 0 256 256;" xml:space="preserve">
<path d="M128,40c-21.1,0.1-41.5,7.7-57.5,21.5C58.2,72,49.4,85.8,47.1,99.6C20.3,105.5,0,128.9,0,157.1C0,189.9,27.3,216,60.5,216
	H203c29,0,53-22.9,53-51.6c0-26.2-19.9-47.5-45.3-51.1C206.8,72,171,40,128,40z M136,104v24h24c4.4,0,8,3.6,8,8s-3.6,8-8,8h-24v24
	c0,4.4-3.6,8-8,8c-4.4,0-8-3.6-8-8v-24H96c-4.4,0-8-3.6-8-8s3.6-8,8-8h24v-24c0-4.4,3.6-8,8-8C132.4,96,136,99.6,136,104z"/>
</svg>
