<?xml version="1.0" encoding="utf-8"?>
<!-- Generator: Adobe Illustrator 26.3.1, SVG Export Plug-In . SVG Version: 6.00 Build 0)  -->
<svg version="1.1" id="图层_1" xmlns="http://www.w3.org/2000/svg" xmlns:xlink="http://www.w3.org/1999/xlink" x="0px" y="0px"
	 viewBox="0 0 256 256" style="enable-background:new 0 0 256 256;" xml:space="preserve">
<path d="M64,96c17.7,0,32,14.3,32,32s-14.3,32-32,32s-32-14.3-32-32S46.3,96,64,96z M106,104.7C93.2,81.5,64,73.1,40.8,85.9
	C28,93,19.1,105.5,16.7,120H8c-4.4,0-8,3.6-8,8c0,4.4,3.6,8,8,8h8.7c4.4,26.1,29.1,43.8,55.3,39.4c23.2-3.9,40.1-23.9,40.1-47.4
	c0-8.8,7.2-16,16-16s16,7.2,16,16c-0.1,26.5,21.4,48,47.9,48.1c23.5,0,43.6-16.9,47.4-40.1h8.7c4.4,0,8-3.6,8-8c0-4.4-3.6-8-8-8
	h-8.7c-4.4-26.1-29.2-43.8-55.3-39.4c-14.4,2.4-27,11.3-34,24.1c-5.9-5.6-13.8-8.8-22-8.8C119.5,96,111.7,99.3,106,104.7z M224,128
	c0,17.7-14.3,32-32,32s-32-14.3-32-32s14.3-32,32-32S224,110.3,224,128z"/>
</svg>
