<?xml version="1.0" encoding="utf-8"?>
<!-- Generator: Adobe Illustrator 26.3.1, SVG Export Plug-In . SVG Version: 6.00 Build 0)  -->
<svg version="1.1" id="图层_1" xmlns="http://www.w3.org/2000/svg" xmlns:xlink="http://www.w3.org/1999/xlink" x="0px" y="0px"
	 viewBox="0 0 512 512" style="enable-background:new 0 0 512 512;" xml:space="preserve">
<path d="M243.4,234.2c12,6.9,16.2,22.2,9.3,34.2c-2.2,3.9-5.4,7.1-9.3,9.3L44.5,393.1C28.3,402.6,6,391.8,6,371.4V140.6
	c0-20.4,22.3-31.2,38.5-21.8C44.5,118.9,243.4,234.2,243.4,234.2z"/>
<path d="M493.4,234.2c12,6.9,16.2,22.2,9.3,34.2c-2.2,3.9-5.4,7.1-9.3,9.3L294.5,393.1c-16.3,9.4-38.5-1.3-38.5-21.8V140.6
	c0-20.4,22.3-31.2,38.5-21.8L493.4,234.2z"/>
</svg>
