<?xml version="1.0" encoding="utf-8"?>
<!-- Generator: Adobe Illustrator 26.3.1, SVG Export Plug-In . SVG Version: 6.00 Build 0)  -->
<svg version="1.1" id="图层_1" xmlns="http://www.w3.org/2000/svg" xmlns:xlink="http://www.w3.org/1999/xlink" x="0px" y="0px"
	 viewBox="0 0 512 512" style="enable-background:new 0 0 512 512;" xml:space="preserve">
<path d="M222.1,38.1v18.8H52.6c-18.7,0-33.9,14.4-33.9,32.1v64.2c0,17.7,15.2,32.1,33.9,32.1h169.5v32.1H69.6
	c-10.7,0-20.7,4.8-27.1,12.8L9.4,271.8c-4.5,5.7-4.5,13.5,0,19.2l33.1,41.7c6.4,8.1,16.4,12.8,27.1,12.8h152.5V506h67.8V345.6h169.5
	c18.7,0,33.9-14.4,33.9-32.1v-64.2c0-17.7-15.2-32.1-33.9-32.1H289.9v-32.1h152.5c10.7,0,20.7-4.8,27.1-12.8l33.1-41.7
	c4.5-5.7,4.5-13.5,0-19.2l-33.1-41.7c-6.4-8.1-16.4-12.8-27.1-12.8H289.9V38.1C289.9,20.4,274.7,6,256,6S222.1,20.4,222.1,38.1z
	 M442.4,89l25.4,32.1l-25.4,32.1H52.6V89H442.4z M459.4,249.4v64.2H69.6l-25.4-32.1l25.4-32.1H459.4z"/>
</svg>
