<?xml version="1.0" encoding="utf-8"?>
<!-- Generator: Adobe Illustrator 26.3.1, SVG Export Plug-In . SVG Version: 6.00 Build 0)  -->
<svg version="1.1" id="图层_1" xmlns="http://www.w3.org/2000/svg" xmlns:xlink="http://www.w3.org/1999/xlink" x="0px" y="0px"
	 viewBox="0 0 400 100" style="enable-background:new 0 0 400 100;" xml:space="preserve">
<g id="Ebene_2">
	<g id="Ebene_1-2">
		<g id="Amazing_Business_Ideas">
			<g id="Gruppe_9136">
				<path id="Pfad_17961" d="M135.6,70.7c-3.3-0.9-6.4-2.3-9.2-4.3l4-9c2.4,1.7,5.1,3,7.9,3.9c2.9,1,6,1.5,9.1,1.5
					c3.4,0,5.9-0.5,7.5-1.5c1.5-0.8,2.4-2.3,2.4-4c0-1.2-0.5-2.3-1.4-3.1c-1.1-0.9-2.3-1.5-3.7-1.9c-1.5-0.5-3.5-1-6.1-1.6
					c-3.3-0.7-6.5-1.7-9.6-2.8c-2.5-0.9-4.7-2.5-6.4-4.5c-1.9-2.3-2.8-5.3-2.7-8.2c0-2.9,0.8-5.7,2.4-8.1c1.8-2.6,4.4-4.6,7.3-5.8
					c3.8-1.5,7.9-2.3,12-2.1c3.2,0,6.5,0.4,9.6,1.2c2.9,0.7,5.7,1.8,8.2,3.4l-3.7,9c-4.3-2.6-9.2-4-14.3-4c-3.3,0-5.8,0.5-7.4,1.6
					c-1.5,0.9-2.4,2.5-2.4,4.3c0,1.8,1.1,3.3,2.8,3.9c2.7,1.1,5.5,2,8.4,2.5c3.3,0.7,6.5,1.7,9.6,2.8c2.5,0.9,4.7,2.4,6.4,4.4
					c1.8,2,2.7,4.7,2.7,8.2c0,2.9-0.8,5.7-2.5,8.1c-1.9,2.6-4.4,4.6-7.4,5.8c-3.8,1.5-7.9,2.3-12,2.1
					C143.4,72.4,139.4,71.9,135.6,70.7z"/>
				<path id="Pfad_17962" d="M173.5,24.6c-1.3-1.2-2-2.8-2-4.6c0-1.7,0.7-3.4,2-4.6c1.4-1.3,3.3-1.9,5.2-1.8
					c1.9-0.1,3.7,0.5,5.1,1.8c1.3,1.1,2,2.7,2,4.4c0,1.8-0.7,3.5-2,4.7c-1.4,1.3-3.3,2-5.1,1.9C176.7,26.5,174.9,25.9,173.5,24.6z
					 M172.9,31.9h11.5v39.6h-11.5V31.9z"/>
				<path id="Pfad_17963" d="M232.2,31.9v32.9c0,7.3-1.9,12.6-5.7,16.2s-9.3,5.3-16.5,5.3c-3.7,0-7.3-0.5-10.9-1.4
					c-3.1-0.8-6-2.1-8.5-4l4.6-8.2c1.9,1.5,4,2.6,6.3,3.3c2.5,0.8,5.1,1.2,7.6,1.2c4,0,6.9-0.9,8.8-2.7s2.8-4.5,2.8-8.1v-1.7
					c-3,3.3-7.2,4.9-12.5,4.9c-3.5,0-6.9-0.8-10-2.4c-3-1.5-5.4-3.9-7.2-6.7c-1.8-3-2.7-6.5-2.6-10c-0.1-3.5,0.8-7,2.6-10
					c1.7-2.9,4.2-5.2,7.2-6.7c3.1-1.6,6.5-2.4,10-2.4c5.7,0,10.1,1.9,13.1,5.7V32L232.2,31.9z M217.9,57.5c1.9-1.8,3-4.4,2.9-7
					c0.1-2.7-1-5.2-2.9-7c-2-1.8-4.7-2.8-7.5-2.7c-2.8-0.1-5.4,0.9-7.5,2.7c-2,1.8-3,4.4-2.9,7c-0.1,2.7,1,5.2,2.9,7
					c2.1,1.8,4.7,2.8,7.5,2.7C213.2,60.3,215.9,59.3,217.9,57.5z"/>
				<path id="Pfad_17964" d="M275.1,35.8c3,2.9,4.5,7.3,4.5,13.1v22.7h-11.5V50.6c0-3.1-0.7-5.5-2.1-7c-1.5-1.6-3.7-2.5-5.9-2.3
					c-2.6-0.1-5.1,0.9-6.9,2.7c-1.7,1.8-2.6,4.4-2.6,8v19.6h-11.5V31.9h11v4.6c1.6-1.7,3.5-3,5.7-3.9c2.4-0.9,4.9-1.4,7.4-1.4
					C268.1,31.4,272.1,32.8,275.1,35.8z"/>
				<path id="Pfad_17965" d="M326.2,31.9v39.6h-10.9v-4.7c-1.5,1.7-3.4,3-5.4,3.9c-2.2,0.9-4.5,1.4-6.8,1.4c-5.2,0-9.3-1.5-12.4-4.5
					c-3-3-4.6-7.4-4.6-13.3V31.9h11.5v20.7c0,6.4,2.7,9.6,8,9.6c2.5,0.1,4.9-0.9,6.6-2.7c1.7-1.8,2.5-4.5,2.5-8V32L326.2,31.9z"/>
				<path id="Pfad_17966" d="M395.6,35.7c2.9,2.9,4.4,7.3,4.4,13.1v22.7h-11.5V50.6c0-3.1-0.7-5.5-2-7c-1.4-1.6-3.4-2.4-5.6-2.3
					c-2.4-0.1-4.8,0.8-6.4,2.6c-1.6,1.7-2.4,4.3-2.4,7.8v19.9h-11.5V50.6c0-6.2-2.5-9.3-7.5-9.3c-2.4-0.1-4.7,0.9-6.3,2.6
					c-1.6,1.7-2.4,4.3-2.4,7.8v19.9h-11.5V31.9h11v4.6c1.5-1.7,3.3-3,5.4-3.8c2.2-0.9,4.6-1.3,7-1.3c2.6,0,5.2,0.5,7.6,1.7
					c2.2,1.1,4.1,2.7,5.4,4.8c1.6-2.1,3.7-3.7,6.1-4.8c2.6-1.1,5.3-1.7,8.1-1.7C388.8,31.4,392.7,32.8,395.6,35.7z"/>
			</g>
		</g>
		<path d="M46.8,3.2C20.9,3.2,0,24.2,0,50s20.9,46.8,46.8,46.8S93.6,75.9,93.6,50S72.6,3.2,46.8,3.2z M49.8,18c2.7-2.7,7-2.7,9.6,0
			l7,7l-7.8,7.8l-7,7c-2.7,2.7-7,2.7-9.6,0L40,37.9l3.7-3.7l1.9,1.9c0.6,0.6,1.6,0.6,2.3,0L59.1,25l-3.3-3.3c-0.6-0.6-1.6-0.6-2.3,0
			l-1.6,1.6l-3.7-3.7L49.8,18z M60,34.2l10.7,10.7L67,48.6L56.4,37.9L60,34.2z M34.7,40.4L31,36.8l10.7-10.7l3.7,3.7L34.7,40.4z
			 M34.1,18c2.7-2.7,7-2.7,9.6,0l9.8,9.8l-3.7,3.7l-9.8-9.8c-0.6-0.6-1.6-0.6-2.3,0L34.5,25l2.7,2.7l-3.7,3.7L27.1,25L34.1,18z
			 M14.8,37.3l7-7l14.9,14.8c2.7,2.7,2.7,7,0,9.7l-1.9,1.9L31,53.1l1.9-1.9c0.6-0.6,0.6-1.6,0-2.3L21.8,37.7L18.4,41
			c-0.6,0.6-0.6,1.6,0,2.3l1.6,1.6l-3.7,3.7L14.8,47C12.1,44.3,12.1,40,14.8,37.3z M37.2,62.1l-3.7,3.7L22.9,55.1l3.7-3.7L37.2,62.1
			z M14.8,62.7c-2.7-2.7-2.7-7,0-9.6l9.8-9.8l3.7,3.7l-9.8,9.8c-0.6,0.6-0.6,1.6,0,2.3l3.3,3.3l2.7-2.7l3.7,3.7l-6.4,6.4L14.8,62.7z
			 M43.8,82c-2.7,2.7-7,2.7-9.6,0l-7-7L42,60.2c2.7-2.7,7-2.7,9.6,0l1.9,1.9l-3.7,3.7l-1.9-1.9c-0.6-0.6-1.6-0.6-2.3,0L34.5,75
			l3.3,3.3c0.6,0.6,1.6,0.6,2.3,0l1.6-1.6l3.7,3.7L43.8,82z M58.9,59.6l3.7,3.7L51.9,73.9l-3.7-3.7L58.9,59.6z M59.4,82
			c-2.7,2.7-7,2.7-9.6,0L40,72.3l3.7-3.7l9.8,9.8c0.6,0.6,1.6,0.6,2.3,0l3.3-3.3l-2.7-2.7l3.7-3.7l6.4,6.4L59.4,82z M78.8,62.7l-7,7
			L57,54.8c-2.7-2.7-2.7-7,0-9.6l1.9-1.9l3.7,3.7l-1.9,1.9c-0.6,0.6-0.6,1.6,0,2.3l11.2,11.2l3.3-3.3c0.6-0.6,0.6-1.6,0-2.3
			c0,0,0,0,0,0l-1.6-1.6l3.7-3.7l1.6,1.6C81.5,55.7,81.5,60,78.8,62.7L78.8,62.7z M78.8,47l-9.8,9.8l-3.7-3.7l9.8-9.8
			c0.6-0.6,0.6-1.6,0-2.3c0,0,0,0,0,0l-3.3-3.3l-2.7,2.7l-3.7-3.7l6.4-6.4l7,7C81.5,40,81.5,44.3,78.8,47L78.8,47z"/>
	</g>
</g>
</svg>
