<?xml version="1.0" encoding="utf-8"?>
<!-- Generator: Adobe Illustrator 26.3.1, SVG Export Plug-In . SVG Version: 6.00 Build 0)  -->
<svg version="1.1" id="图层_1" xmlns="http://www.w3.org/2000/svg" xmlns:xlink="http://www.w3.org/1999/xlink" x="0px" y="0px"
	 viewBox="0 0 256 256" style="enable-background:new 0 0 256 256;" xml:space="preserve">
<path d="M192.7,13.7c12.6-3.1,25.3,4.5,28.4,17c0.5,1.9,0.7,3.8,0.7,5.7v19.1h7.8c12.9,0,23.4,10.5,23.4,23.4v140.6
	c0,12.9-10.5,23.4-23.4,23.4H26.5C13.6,243,3.1,232.5,3.1,219.6V78.9C3.1,66.4,13,56,25.5,55.5L192.7,13.7z M90,55.5h116.2V36.4
	c0-4.3-3.5-7.8-7.8-7.8c-0.6,0-1.3,0.1-1.9,0.2L90,55.5z M26.5,71.1c-4.3,0-7.8,3.5-7.8,7.8v140.6c0,4.3,3.5,7.8,7.8,7.8h203.1
	c4.3,0,7.8-3.5,7.8-7.8V78.9c0-4.3-3.5-7.8-7.8-7.8H26.5z"/>
</svg>
