<?xml version="1.0" encoding="utf-8"?>
<!-- Generator: Adobe Illustrator 26.3.1, SVG Export Plug-In . SVG Version: 6.00 Build 0)  -->
<svg version="1.1" id="图层_1" xmlns="http://www.w3.org/2000/svg" xmlns:xlink="http://www.w3.org/1999/xlink" x="0px" y="0px"
	 viewBox="0 0 48 48" style="enable-background:new 0 0 48 48;" xml:space="preserve">
<style type="text/css">
	.st0{fill:none;}
</style>
<path class="st0" d="M0,0h48v48H0V0z"/>
<path d="M42,14.6V10c0-2.2-1.8-4-4-4H10c-2.2,0-4,1.8-4,4v28c0,2.2,1.8,4,4,4h28c2.2,0,4-1.8,4-4v-4.6c1.2-0.7,2-2,2-3.4V18
	C44,16.5,43.2,15.3,42,14.6z M40,18v12H26V18H40z M10,38V10h28v4H26c-2.2,0-4,1.8-4,4v12c0,2.2,1.8,4,4,4h12v4H10z"/>
<circle cx="32" cy="24" r="3"/>
</svg>
