<?xml version="1.0" encoding="utf-8"?>
<!-- Generator: Adobe Illustrator 26.3.1, SVG Export Plug-In . SVG Version: 6.00 Build 0)  -->
<svg version="1.1" id="图层_1" xmlns="http://www.w3.org/2000/svg" xmlns:xlink="http://www.w3.org/1999/xlink" x="0px" y="0px"
	 viewBox="0 0 256 256" style="enable-background:new 0 0 256 256;" xml:space="preserve">
<style type="text/css">
	.st0{fill:none;}
</style>
<g>
	<rect class="st0" width="256" height="256"/>
	<path d="M107.3,120.4l-9.1,9.1c-6-6.4-11.9-14.1-16-25.1l12.5-3.2C98,109.3,102.4,115.3,107.3,120.4z M121.6,76.8L83.2,38.4
		L44.8,76.8h32.4c0.3,5.5,0.9,10.6,1.8,15.2l12.4-3c-0.8-3.7-1.3-7.8-1.5-12.2H121.6z M211.2,76.8l-38.4-38.4l-38.4,38.4h31.7
		c-1.5,28.4-13.1,39.8-24.3,50.7c-5,4.7-10,9.6-13.8,15.7c-3.3-5.2-7.4-9.6-11.6-13.7l-9.1,9.1c8.3,8.2,14.3,14.8,14.3,27.8v51.2
		h12.8v-51.2l0,0l0,0c0-14.1,6.8-20.6,16.3-29.7c12-11.5,26.5-26,28.3-59.9C178.9,76.8,211.2,76.8,211.2,76.8z"/>
</g>
</svg>
