<?xml version="1.0" encoding="utf-8"?>
<!-- Generator: Adobe Illustrator 26.3.1, SVG Export Plug-In . SVG Version: 6.00 Build 0)  -->
<svg version="1.1" id="图层_1" xmlns="http://www.w3.org/2000/svg" xmlns:xlink="http://www.w3.org/1999/xlink" x="0px" y="0px"
	 viewBox="0 0 256 256" style="enable-background:new 0 0 256 256;" xml:space="preserve">
<path d="M42.8,182.9c3.4,3.4,5,8.1,4.6,12.8c-1.1,10.8-3.3,21.6-6.4,32c22.3-5.2,36-11.2,42.1-14.3c3.5-1.8,7.6-2.2,11.4-1.2
	c10.9,2.9,22.1,4.4,33.4,4.4c63.9,0,112-44.9,112-96c0-51.1-48.1-96-112-96s-112,44.9-112,96C16,144,25.9,165.8,42.8,182.9z
	 M35,245.3c-3.8,0.8-7.6,1.4-11.4,2.1c-3.2,0.5-5.6-2.8-4.4-5.8c1.4-3.4,2.7-6.7,3.9-10.2l0-0.2c4-11.5,7.2-24.8,8.4-37.1
	C11.9,174.5,0,148.7,0,120.5c0-61.9,57.3-112,128-112s128,50.1,128,112s-57.3,112-128,112c-12.7,0-25.3-1.6-37.6-4.9
	C82.1,231.9,64.2,239.5,35,245.3z"/>
<path d="M64,80.5c0-4.4,3.6-8,8-8h112c4.4,0,8,3.6,8,8s-3.6,8-8,8H72C67.6,88.5,64,85,64,80.5z M64,120.5c0-4.4,3.6-8,8-8h112
	c4.4,0,8,3.6,8,8c0,4.4-3.6,8-8,8H72C67.6,128.5,64,125,64,120.5z M64,160.5c0-4.4,3.6-8,8-8h64c4.4,0,8,3.6,8,8s-3.6,8-8,8H72
	C67.6,168.5,64,165,64,160.5z"/>
</svg>
