<?xml version="1.0" encoding="utf-8"?>
<!-- Generator: Adobe Illustrator 26.3.1, SVG Export Plug-In . SVG Version: 6.00 Build 0)  -->
<svg version="1.1" id="图层_1" xmlns="http://www.w3.org/2000/svg" xmlns:xlink="http://www.w3.org/1999/xlink" x="0px" y="0px"
	 viewBox="0 0 512 512" style="enable-background:new 0 0 512 512;" xml:space="preserve">
<path d="M506,256c0,138.1-111.9,250-250,250S6,394.1,6,256S117.9,6,256,6S506,117.9,506,256z M279.4,291.8V91.9
	c0-12.9-10.4-23.4-23.4-23.4S232.6,79,232.6,91.9v199.9c-22.9,9.2-39.1,31.6-39.1,57.9c0,34.5,28,62.5,62.5,62.5s62.5-28,62.5-62.5
	C318.5,323.5,302.4,301,279.4,291.8z M146.6,177.9c17.3,0,31.3-14,31.3-31.3s-14-31.3-31.3-31.3s-31.3,14-31.3,31.3
	S129.3,177.9,146.6,177.9z M99.8,224.8c-17.3,0-31.3,14-31.3,31.3s14,31.3,31.3,31.3c17.3,0,31.3-14,31.3-31.3S117,224.8,99.8,224.8
	z M412.3,287.3c17.3,0,31.3-14,31.3-31.3s-14-31.3-31.3-31.3S381,238.7,381,256S395,287.3,412.3,287.3z M365.4,115.4
	c-17.3,0-31.3,14-31.3,31.3s14,31.3,31.3,31.3s31.3-14,31.3-31.3S382.7,115.4,365.4,115.4z"/>
</svg>
