<?xml version="1.0" encoding="utf-8"?>
<!-- Generator: Adobe Illustrator 26.3.1, SVG Export Plug-In . SVG Version: 6.00 Build 0)  -->
<svg version="1.1" id="图层_1" xmlns="http://www.w3.org/2000/svg" xmlns:xlink="http://www.w3.org/1999/xlink" x="0px" y="0px"
	 viewBox="0 0 512 512" style="enable-background:new 0 0 512 512;" xml:space="preserve">
<path d="M490.3,168.7c3.2,8.4,0.5,17.9-6.2,24l-42.3,38.5c1.1,8.1,1.7,16.4,1.7,24.8s-0.6,16.7-1.7,24.8l42.3,38.5
	c6.6,6.2,9.4,15.6,6.2,24c-4.3,11.6-9.5,22.9-15.3,33.5l-4.6,7.9c-6.4,10.7-13.7,20.9-21.6,30.6c-5.9,6.9-15.3,9.4-23.9,6.6
	l-54.4-17.4c-13.1,10.1-28.4,18.5-43,24.9l-12.2,55.8c-2,8.8-8.8,15-17.8,17.4c-13.5,2.2-27.3,3.4-42.4,3.4
	c-13.3,0-27.1-1.2-40.6-3.4c-9-2.3-15.8-8.6-17.8-17.4l-12.2-55.8c-15.4-6.4-29.9-14.8-43-24.9l-54.4,17.4
	c-8.6,2.7-18.2,0.3-23.9-6.6c-7.9-9.7-15.1-19.8-21.6-30.6l-4.6-7.9c-5.9-10.6-11.1-21.9-15.4-33.5c-3.2-8.4-0.5-17.9,6.2-24
	l42.2-38.5c-1.1-8.1-1.6-16.4-1.6-24.8s0.6-16.7,1.6-24.8l-42.2-38.5c-6.7-6.2-9.4-15.5-6.2-24c4.3-11.6,9.5-22.9,15.4-33.5l4.6-7.9
	c6.5-10.7,13.7-20.9,21.6-30.5c5.8-7,15.3-9.4,23.9-6.7l54.4,17.3c13.1-10.1,27.5-18.5,43-24.9l12.2-55.8c2-8.9,8.8-15.9,17.8-17.4
	C228,7.2,241.8,6,256,6s28,1.2,41.5,3.4c9,1.5,15.8,8.5,17.8,17.4l12.2,55.8c14.6,6.4,29.9,14.8,43,24.9l54.4-17.3
	c8.6-2.8,18.1-0.3,23.9,6.7c7.9,9.6,15.1,19.8,21.6,30.5l4.6,7.9C480.8,145.8,486,157.1,490.3,168.7L490.3,168.7z M256,334.1
	c43.2,0,78.1-35,78.1-79c0-42.3-35-78.1-78.1-78.1s-78.1,35.8-78.1,78.1C177.9,299.2,212.8,334.1,256,334.1z"/>
</svg>
