<?xml version="1.0" encoding="utf-8"?>
<!-- Generator: Adobe Illustrator 26.3.1, SVG Export Plug-In . SVG Version: 6.00 Build 0)  -->
<svg version="1.1" id="图层_1" xmlns="http://www.w3.org/2000/svg" xmlns:xlink="http://www.w3.org/1999/xlink" x="0px" y="0px"
	 viewBox="0 0 256 256" style="enable-background:new 0 0 256 256;" xml:space="preserve">
<style type="text/css">
	.st0{fill:none;}
</style>
<path class="st0" d="M0,0h256v256H0V0z"/>
<path d="M117.3,192h21.3v-21.3h-21.3V192z M128,21.3c-58.7,0-106.7,48-106.7,106.7s48,106.7,106.7,106.7s106.7-48,106.7-106.7
	S186.7,21.3,128,21.3z M128,213.3c-46.9,0-85.3-38.4-85.3-85.3S81.1,42.7,128,42.7s85.3,38.4,85.3,85.3S174.9,213.3,128,213.3z
	 M128,64c-23.5,0-42.7,19.2-42.7,42.7h21.3c0-11.7,9.6-21.3,21.3-21.3s21.3,9.6,21.3,21.3c0,21.3-32,18.7-32,53.3h21.3
	c0-24,32-26.7,32-53.3C170.7,83.2,151.5,64,128,64z"/>
</svg>
