<?xml version="1.0" encoding="utf-8"?>
<!-- Generator: Adobe Illustrator 26.3.1, SVG Export Plug-In . SVG Version: 6.00 Build 0)  -->
<svg version="1.1" id="图层_1" xmlns="http://www.w3.org/2000/svg" xmlns:xlink="http://www.w3.org/1999/xlink" x="0px" y="0px"
	 viewBox="0 0 512 512" style="enable-background:new 0 0 512 512;" xml:space="preserve">
<style type="text/css">
	.st0{fill-rule:evenodd;clip-rule:evenodd;}
</style>
<path d="M128,480c-17.7,0-32-14.3-32-32c0-17.7,14.3-32,32-32s32,14.3,32,32C160,465.7,145.7,480,128,480z M128,512
	c35.3,0,64-28.7,64-64s-28.7-64-64-64s-64,28.7-64,64S92.6,512,128,512z M384,480c-17.7,0-32-14.3-32-32c0-17.7,14.3-32,32-32
	c17.7,0,32,14.3,32,32C416,465.7,401.7,480,384,480z M384,512c35.3,0,64-28.7,64-64s-28.7-64-64-64s-64,28.7-64,64
	S348.7,512,384,512z M3.7,101.8c3-3.7,7.6-5.8,12.3-5.8h480c8.8,0,16,7.2,16,16c0,1-0.1,2-0.3,2.9l-48,256c-1.4,7.6-8,13-15.7,13.1
	H64c-7.7,0-14.3-5.5-15.7-13.1l-48-256C-0.6,110.3,0.6,105.5,3.7,101.8L3.7,101.8z M35.3,128l42,224h357.5l42-224H35.3z"/>
<path class="st0" d="M192,32c26.5-35.3,76.6-42.6,111.9-16.1c6.1,4.6,11.5,10,16.1,16.1c26.2,0,49.4,12.6,64,32
	c21.4,0,49.7,18.2,64,32h-64c-10,0-19.6-4.8-25.6-12.8C349.6,71.6,335.7,64,320,64c-10,0-19.6-4.8-25.6-12.8
	c-15.8-21.2-45.8-25.6-67-9.8c-3.7,2.8-7,6.1-9.8,9.8c-6,8-15.6,12.8-25.6,12.8c-16.2,0-30.6,8-39.3,20.4c-2.9,4.2-6.2,8-9.9,11.6
	H96c4.2-4.7,12.8-13.8,18-17.4c4.9-3.4,9.1-7.7,12.6-12.6C141.5,44.7,165.9,32,192,32z"/>
</svg>
