<?xml version="1.0" encoding="utf-8"?>
<!-- Generator: Adobe Illustrator 26.3.1, SVG Export Plug-In . SVG Version: 6.00 Build 0)  -->
<svg version="1.1" id="图层_1" xmlns="http://www.w3.org/2000/svg" xmlns:xlink="http://www.w3.org/1999/xlink" x="0px" y="0px"
	 viewBox="0 0 512 512" style="enable-background:new 0 0 512 512;" xml:space="preserve">
<path d="M505.6,42l-62.5,405.4c-1.5,9.5-7.2,17.8-15.6,22.5c-4.7,2.7-10,4-15.3,4c-4.1,0-8.1-0.8-12-2.4l-119.7-49.9l-49.7,74.5
	c-3.8,6.5-10.2,9.9-17,9.9c-11.2,0-20.3-9.1-20.3-20.3v-93.9c0-6.9,2.3-13.7,6.6-19.2L412.3,99.7L125.4,357.9L25.2,316.1
	c-11-4.6-18.4-14.9-19.2-27.7s5.3-23.2,15.7-29.1L459.3,10.1c10.4-6,23.3-5.4,33.2,1.4S507.5,30.1,505.6,42z"/>
</svg>
