<?xml version="1.0" encoding="utf-8"?>
<!-- Generator: Adobe Illustrator 26.3.1, SVG Export Plug-In . SVG Version: 6.00 Build 0)  -->
<svg version="1.1" id="图层_1" xmlns="http://www.w3.org/2000/svg" xmlns:xlink="http://www.w3.org/1999/xlink" x="0px" y="0px"
	 viewBox="0 0 512 512" style="enable-background:new 0 0 512 512;" xml:space="preserve">
<path d="M330,224.8c27.6,0,53.6,10.7,73.1,30.2l19.1,19.1c39.1-17.3,69.6-52.1,79.7-94.4c5.6-23.4,5.2-46,0.2-66.8
	c-2.6-10.6-16-14.2-23.8-6.4l-67.3,67.3h-73.8v-73l67.3-67.3c7.7-7.7,4.2-21.2-6.4-23.8c-20.8-5-43.4-5.4-66.8,0.2
	c-54,12.9-96.1,58.8-104.7,113.7c-1.4,8.1-1.7,16-1.6,23.9l80.8,80.9C313.8,225.8,321.9,224.8,330,224.8z M381,278.1
	c-22.6-22.6-56.2-26.9-83.4-13.6l-105-104.2V99.7L68.5,6L6,67.6l93.7,124.1l60.6,0l104.2,104.1c-13.3,27.2-9,60.8,13.6,83.4
	l114.2,114.4c14.3,14.2,37.3,14.2,51.5,0l51.5-51.5c14.2-14.2,14.2-37.2,0-51.5L381,278.1z M228.5,305.8l-57.8-57.7L25.3,393.5
	c-25.7,25.8-25.7,67.5,0,93.2C38.2,499.6,55,506,71.9,506s33.7-6.4,46.6-19.3l116.3-116.3C226.2,350,223.4,327.7,228.5,305.8z
	 M68.5,466.9c-12.9,0-23.4-10.5-23.4-23.4c0-12.9,10.5-23.4,23.4-23.4s23.4,10.4,23.4,23.4S81.4,466.9,68.5,466.9z"/>
</svg>
